<?xml version="1.0" encoding="UTF-8" standalone="no"?><!DOCTYPE svg PUBLIC "-//W3C//DTD SVG 1.1//EN" "http://www.w3.org/Graphics/SVG/1.1/DTD/svg11.dtd"><svg width="100%" height="100%" viewBox="0 0 2250 2250" version="1.1" xmlns="http://www.w3.org/2000/svg" xmlns:xlink="http://www.w3.org/1999/xlink" xml:space="preserve" xmlns:serif="http://www.serif.com/" style="fill-rule:evenodd;clip-rule:evenodd;stroke-linejoin:round;stroke-miterlimit:2;"><path d="M2250,1124.648c-0.891,83.687 2.477,464.604 -341.066,804.013c-71.605,70.744 -135.735,113.052 -148.551,121.507c-83.079,54.81 -197.186,133.417 -437.143,179.019c-23.692,4.503 -91.806,23.062 -282.719,16.456c-7.192,-0.249 -169.474,-14.023 -308.152,-67.552c-51.94,-20.049 -239.228,-84.799 -430.916,-288.093c-59.614,-63.224 -105.277,-133.159 -113.344,-145.514c-75.139,-115.081 -178.204,-295.347 -186.898,-606.922c-0.339,-12.135 -10.889,-128.579 37.1,-308.395c86.389,-323.701 310.696,-531.97 403.035,-597.712c38.908,-27.701 292.392,-232.303 689.273,-232.076c161.342,0.092 327.591,43.544 412.363,81.983c41.271,18.714 240.879,90.356 423.091,297.901c246.418,280.679 276.544,573.896 283.927,745.386Z" style="fill:#134e4a;"/><path d="M621.252,689.66c19.067,-52.221 56.346,-152.634 185.676,-224.69c101.001,-56.273 116.128,-49.288 477.665,-49.288c294.081,-0 296.055,-1.048 303.695,6.804c20.945,21.527 -22.451,172.885 -161.965,204.193c-72.004,16.158 -430.654,-2.282 -475.17,11.236c-127.826,38.815 -149.816,167.611 -112.433,241.394c83.398,164.6 317.551,104.905 326.452,-62.862c2.166,-40.827 -9.808,-73.109 -10.01,-76.791c-0.669,-12.254 10.977,-15.637 12.545,-16.092c12.926,-3.755 13.221,-1.769 168.255,-0.948c44.017,0.233 44.204,12.023 47.27,55.92c15.719,225.05 -154.755,336.59 -164.127,344.635c-18.46,15.844 -416.419,345.004 -421.26,349.146c-82.23,70.356 -16.885,131.904 11.649,140.884c58.867,18.524 103.109,-40.411 158.838,-85.193c101.999,-81.963 98.884,-85.546 183.545,-151.844c50.954,-39.902 98.125,-99.545 196.879,-123.105c32.371,-7.723 107.754,-6.386 140.056,3.804c74.936,23.639 102.778,49.035 124.083,66.108c139.355,133.828 92.317,290.798 84.807,315.86c-20.993,70.056 -82.038,134.304 -97.688,147.23c-50.016,41.309 -53.281,41.507 -59.062,41.856c-13.412,0.811 -15.169,-1.043 -117.406,-123.906c-38.35,-46.087 0.741,-47.097 46.793,-99.068c66.517,-75.065 -15.057,-155.582 -82.924,-133.256c-13.229,4.352 -17.24,5.671 -137.287,107.034c-222.34,187.735 -241.347,205.979 -301.117,234.876c-91.739,44.353 -204.627,16.038 -243.683,-5.047c-204.312,-110.301 -196.797,-326.563 -97.479,-450.041c32.995,-41.022 204.615,-175.595 210.943,-184.893c6.652,-9.775 0.879,-18.829 0.011,-20.191c-0.24,-0.377 -0.116,-0.208 -32.552,-19.282c-75.898,-44.631 -165.031,-149.449 -177.794,-279.428c-9.826,-100.073 0.416,-112.415 12.793,-165.055Z" style="fill:#facc15;"/></svg>